<svg width="546" height="413" viewBox="0 0 546 413" fill="none" xmlns="http://www.w3.org/2000/svg">
<g clip-path="url(#clip0_21_207)">
<path d="M106.947 150.339C106.947 150.339 91.9349 141.332 77.3859 137.406C62.8359 133.48 51.5199 120.085 48.8639 113.503C46.2079 106.921 44.0138 103.11 44.0138 103.11C44.0138 103.11 33.6959 130.276 60.2179 147.409C86.7399 164.542 98.4019 163.325 111.22 166.936C124.038 170.547 128.657 170.547 128.657 170.547L106.947 150.339Z" fill="#475C63"/>
<path d="M109.3 153.538C109.3 153.538 137.972 174.351 146.415 197.388C154.858 220.424 152.62 235.925 152.62 235.925" stroke="#475C63" stroke-miterlimit="10" stroke-linecap="round" stroke-linejoin="round"/>
<path d="M287.032 120.027C287.032 120.027 290.9 99.1082 307.455 90.3272C324.01 81.5472 330.626 75.5132 334.899 66.8482C339.172 58.1842 337.161 47.1992 337.161 47.1992" stroke="#475C63" stroke-miterlimit="10" stroke-linecap="round" stroke-linejoin="round"/>
<path d="M21.1818 271.28C21.1818 271.28 11.8018 287.994 11.6098 297.183C11.4188 306.372 12.5668 378.737 12.5668 378.737L17.6358 378.928L26.5418 386.777L23.0848 378.928L28.1868 379.311V375.099L37.6458 375.673L46.5238 381.416L42.6008 375.864L48.3668 375.29L42.4168 280.483L43.4738 272.678L21.1818 271.28Z" fill="#475263"/>
<path d="M42.416 243.714C42.416 243.714 45.748 248.361 47.708 253.732C49.668 259.103 53.151 267.086 53.151 267.086L72.239 258.667C72.239 258.667 75.07 253.804 75.578 253.949C76.086 254.094 75.002 256.344 75.002 256.344L83.852 252.715C83.852 252.715 76.957 257.36 76.376 257.65C75.795 257.94 75.505 260.715 74.199 261.977C72.892 263.239 51.917 277.392 50.611 276.666C49.304 275.94 46.184 270.86 46.184 270.86L42.416 243.714Z" fill="#F09EB0"/>
<path d="M30.4942 240.493L24.9052 241.893L17.6362 266.075C17.6362 266.075 26.1552 275.366 33.5412 277.021C40.9272 278.676 41.8182 278.294 41.8182 278.294C41.8182 278.294 43.4732 266.653 43.4732 258.155C43.4732 249.657 42.3272 243.421 42.3272 243.421L39.1952 241.576L30.4942 240.493Z" fill="#8675A3"/>
<path d="M64.8321 197.388C63.8321 193.388 62.8321 189.388 62.8321 185.388C64.8321 188.388 63.8321 193.388 67.8321 195.388C66.8321 192.388 66.8321 189.388 66.8321 186.388C68.9931 187.829 68.5681 190.82 69.6521 192.757L68.4461 188.29L58.5371 167.468L60.2181 189.342C60.3631 188.071 60.5571 186.769 60.8331 185.388C60.8321 189.388 62.8321 193.388 64.8321 197.388Z" fill="#E09775"/>
<path d="M69.6523 192.757C68.5693 190.819 68.9933 187.828 66.8323 186.388C66.8323 189.388 66.8323 192.388 67.8323 195.388C63.8323 193.388 64.8323 188.388 62.8323 185.388C62.8323 189.388 63.8323 193.388 64.8323 197.388C62.8323 193.388 60.8323 189.388 60.8323 185.388C60.5563 186.769 60.3613 188.071 60.2173 189.342L60.5433 193.589L78.3553 266.06L90.3973 269.572L69.6523 192.757Z" fill="#5651E1"/>
<path d="M58.5361 167.155L58.5591 167.466L59.0881 174.648L59.5311 172.94L61.2401 175.109L60.7141 172.044" fill="#6E4A39"/>
<path d="M85.2972 177.948C84.9422 173.84 84.5872 169.733 85.2192 165.783C86.7202 169.061 84.9422 173.841 88.5762 176.448C88.0632 173.328 88.5372 170.365 89.0112 167.403C90.9172 169.167 90.0252 172.053 90.7892 174.138L90.3042 169.537L83.8102 147.41L82.0122 169.275C82.3562 168.043 82.7542 166.788 83.2452 165.468C82.6122 169.416 83.9542 173.682 85.2972 177.948Z" fill="#E09775"/>
<path d="M90.7881 174.137C90.0241 172.053 90.9171 169.166 89.0101 167.402C88.5361 170.364 88.0621 173.327 88.5751 176.447C84.9411 173.84 86.7191 169.061 85.2181 165.782C84.5861 169.732 84.9411 173.84 85.2961 177.947C83.9531 173.681 82.6111 169.415 83.2431 165.466C82.7521 166.786 82.3541 168.041 82.0101 169.273L81.6611 173.518L87.7951 247.893L99.1301 253.264L90.7881 174.137Z" fill="#CC816A"/>
<path d="M83.8582 147.1L83.8322 147.411L83.2192 154.586L83.9262 152.969L85.2712 155.382L85.2362 152.272" fill="#6E4A39"/>
<path d="M110.742 197.598C111.07 193.488 111.398 189.378 112.673 185.587C113.612 189.068 111.07 193.488 114.223 196.659C114.232 193.497 115.189 190.653 116.145 187.81C117.734 189.865 116.377 192.564 116.786 194.746L117.067 190.128L114.315 167.233L108.932 188.501C109.474 187.343 110.074 186.17 110.776 184.949C109.502 188.741 110.122 193.17 110.742 197.598Z" fill="#E09775"/>
<path d="M116.787 194.746C116.378 192.564 117.735 189.865 116.146 187.81C115.189 190.653 114.233 193.497 114.224 196.659C111.071 193.488 113.613 189.068 112.674 185.587C111.398 189.378 111.071 193.488 110.743 197.598C110.123 193.169 109.503 188.74 110.779 184.949C110.077 186.17 109.477 187.342 108.935 188.501L107.89 192.63L101.661 266.997L111.954 274.166L116.787 194.746Z" fill="#A69FCC"/>
<path d="M114.416 166.936L114.338 167.239L112.55 174.214L113.514 172.736L114.442 175.338L114.921 172.265" fill="#6E4A39"/>
<path d="M155.242 245.029H71.501L75.002 271.28H155.242V245.029Z" fill="#584D6B"/>
<path d="M75.002 271.28L85.02 346.383H155.242V271.28H75.002Z" fill="#8675A3"/>
<path d="M347.795 241.835V252.372H332.298C332.298 252.372 332.994 250.686 335.976 249.602C338.958 248.518 341.244 248.037 341.244 248.037L341.447 242.326L347.795 241.835Z" fill="#3C282C"/>
<path d="M349.535 168.199C349.535 168.199 352.408 176.483 352.588 188.773C352.768 201.063 348.637 242.725 348.637 242.725L340.197 243.264L336.605 165.505L349.535 168.199Z" fill="#475263"/>
<path d="M474.575 208.902H472.347V235.629H474.575V208.902Z" fill="#7D5B4E"/>
<path d="M474.575 148.685H472.347V175.412H474.575V148.685Z" fill="#7D5B4E"/>
<path d="M481.872 176.088H466.977V206.256H481.872V176.088Z" fill="#5651E1"/>
<path d="M481.872 176.088H466.977V206.256H481.872V176.088Z" fill="#5651E1"/>
<path d="M481.873 192.999L466.977 200.183V199.454L481.873 192.271V192.999Z" fill="#7D3544"/>
<path d="M481.873 190.515L466.977 197.698V196.97L481.873 189.786V190.515Z" fill="#7D3544"/>
<path d="M481.873 188.03L466.977 195.213V194.485L481.873 187.301V188.03Z" fill="#7D3544"/>
<path d="M481.873 185.545L466.977 192.728V192L481.873 184.817V185.545Z" fill="#7D3544"/>
<path d="M481.873 183.06L466.977 190.244V189.515L481.873 182.332V183.06Z" fill="#7D3544"/>
<path d="M481.873 180.576L466.977 187.759V187.031L481.873 179.847V180.576Z" fill="#7D3544"/>
<path d="M481.873 178.091L466.977 185.274V184.546L481.873 177.362V178.091Z" fill="#7D3544"/>
<path d="M466.977 176.088L464.43 173.541V171.139H484.719V173.26L481.873 176.088H466.977Z" fill="#7D5B4E"/>
<path d="M482.022 206.427L484.569 208.975V211.377H464.28V209.256L467.127 206.427H482.022Z" fill="#7D5B4E"/>
<path d="M528.089 296.277C530.809 296.277 533.013 298.482 533.013 301.202V314.277H543.541V231.333H535.05V247.881C535.05 249.663 533.605 251.107 531.824 251.107C530.042 251.107 528.598 249.663 528.598 247.881V238.73L524.381 236.715V297.993C525.284 296.951 526.601 296.277 528.089 296.277Z" fill="#475263"/>
<path d="M545.919 368.277H523.164V301.202C523.164 299.97 523.633 298.857 524.381 297.994V236.716L521.806 235.486H498.372C498.372 235.486 472.9 197.788 436.561 214.09C400.221 230.392 396.485 252.807 383.919 252.807C371.353 252.807 354.712 252.807 354.712 252.807C354.712 252.807 346.901 252.728 345.882 240.032C344.863 227.336 342.506 211.713 342.506 211.713L333.676 211.582V315.82H341.221C341.221 315.82 347.282 296.817 360.74 292.905C374.197 288.993 476.2 292.905 476.2 292.905C476.2 292.905 489.893 292.905 489.893 306.039C489.893 319.174 489.893 335.103 489.893 335.103C489.893 335.103 492.967 356.342 468.934 356.342C444.901 356.342 369.447 356.342 369.447 356.342C369.447 356.342 352.678 358.863 348.372 370.997H545.919V368.277Z" fill="#5C6A80"/>
<path d="M347.991 371.097C347.357 372.884 346.989 374.876 346.989 377.102H545.539V371.097H347.991Z" fill="#475263"/>
<path d="M324.76 210.483H315.363V313.585H324.76V210.483Z" fill="#475263"/>
<path d="M197.487 25.6802C197.487 25.6802 196.714 56.7962 183.636 64.2902C170.558 71.7842 156.746 74.8702 156.746 74.8702C156.746 74.8702 153.954 78.9842 155.717 90.1522C157.48 101.32 157.921 105.287 157.921 105.287C157.921 105.287 148.247 125.37 153.511 141.502C158.775 157.634 166.247 159.502 166.247 159.502C166.247 159.502 169.474 187.521 163.87 202.294C158.266 217.067 125.832 266.652 119.379 311.483C112.926 356.313 115.304 371.936 115.304 371.936C115.304 371.936 143.349 399.106 223.062 406.238C302.776 413.37 330.285 379.068 330.285 379.068C330.285 379.068 333.342 323.71 313.643 276.842C293.945 229.974 281.718 208.918 278.662 186.502C275.606 164.086 279.681 162.049 279.681 162.049C279.681 162.049 298.7 143.37 295.643 126.728C292.586 110.086 290.549 109.747 290.549 109.747C290.549 109.747 291.568 89.0302 291.228 81.8982C290.888 74.7662 290.888 74.7662 290.888 74.7662C290.888 74.7662 263.547 72.2852 257.476 57.4812C251.405 42.6772 248.681 25.6812 248.681 25.6812L197.487 25.6802Z" fill="#5D5166"/>
<path d="M248.682 25.68C248.682 28.415 237.222 30.632 223.085 30.632C208.948 30.632 197.488 28.415 197.488 25.68C197.488 22.945 208.948 20.728 223.085 20.728C237.222 20.728 248.682 22.945 248.682 25.68Z" fill="#847391"/>
<path d="M166.247 159.501C166.247 159.501 173.486 164.786 186.897 166.702C200.307 168.618 201.159 169.682 201.159 169.682C201.159 169.682 186.684 177.558 178.382 182.028C170.08 186.498 166.807 187.131 166.807 187.131L166.247 159.501Z" fill="#493F4F"/>
<path d="M238.623 168.192C238.623 168.192 252.672 169.469 262.251 168.192C271.83 166.915 279.681 162.048 279.681 162.048C279.681 162.048 277.014 173.492 278.045 181.341C279.077 189.19 279.939 193.589 279.939 193.589C279.939 193.589 273.533 193.097 260.761 188.84C247.989 184.583 238.623 168.192 238.623 168.192Z" fill="#493F4F"/>
<path d="M223.085 30.6318V218.57V406.508" stroke="#EBCAD8" stroke-miterlimit="10" stroke-dasharray="5 5"/>
<path d="M152.62 122.794C152.62 122.794 164.08 150.551 223.084 141.622C223.084 141.622 245.017 148.116 268.018 145.951C291.018 143.786 295.282 136.26 295.282 136.26" stroke="#EBCAD8" stroke-miterlimit="10" stroke-dasharray="5 5"/>
<path d="M149.695 230.237C149.695 230.237 197.267 261.591 294.474 233.004" stroke="#EBCAD8" stroke-miterlimit="10" stroke-dasharray="5 5"/>
<path d="M120.199 306.512C120.199 306.512 230.01 358.108 324.192 310.929" stroke="#EBCAD8" stroke-miterlimit="10" stroke-dasharray="5 5"/>
<path d="M224.236 8.66699H221.853V23.845H224.236V8.66699Z" fill="#5D5166"/>
<path d="M223.085 9.306C225.655 9.306 227.738 7.22278 227.738 4.653C227.738 2.08322 225.655 0 223.085 0C220.515 0 218.432 2.08322 218.432 4.653C218.432 7.22278 220.515 9.306 223.085 9.306Z" fill="#847391"/>
<path d="M274.263 70.9072L290.549 109.746C290.549 109.746 291.51 98.6352 291.278 88.3582C291.046 78.0802 290.888 74.7652 290.888 74.7652L274.263 70.9072Z" fill="#493F4F"/>
<path d="M166.247 72.063L157.799 104.295C157.799 104.295 153.317 92.349 154.02 84.617C154.723 76.885 156.745 74.87 156.745 74.87L166.247 72.063Z" fill="#493F4F"/>
<path d="M167.153 70.9071C167.153 70.9071 170.323 119.709 208.361 129.671C246.399 139.633 272.721 108.789 277.87 100.289C283.019 91.7891 286.247 72.0631 286.247 72.0631L269.266 63.5581L260.411 62.1901L266.549 68.0861C266.549 68.0861 251.379 75.5581 234.398 73.0671C217.417 70.5761 193.796 48.6801 193.796 48.6801L195.428 42.3481C195.428 42.3481 191.832 44.3121 187.304 51.1051C182.776 57.8971 167.153 70.9071 167.153 70.9071Z" fill="#5651E1"/>
<path d="M260.411 62.1899L266.549 68.0859L269.266 63.5579L260.411 62.1899Z" fill="#733C48"/>
<path d="M193.796 48.6801L191.469 45.7701L195.428 42.3481L193.796 48.6801Z" fill="#733C48"/>
<path d="M189.243 51.2769C189.243 51.2769 202.351 96.8628 236.394 98.8188C270.437 100.775 281.197 76.3189 281.197 76.3189" stroke="#733C48" stroke-miterlimit="10"/>
<path d="M201.159 62.1899C201.159 62.1899 227.395 88.2549 253.22 79.8419" stroke="#733C48" stroke-miterlimit="10"/>
<path d="M178.689 62.1899C178.689 62.1899 177.063 122.441 224.236 129.701" stroke="#733C48" stroke-miterlimit="10"/>
<path d="M284.693 156.344C284.693 156.344 280.048 179.492 291.124 206.592C302.199 233.692 295.647 287.978 308.381 317.9C321.115 347.822 339.115 366.162 341.153 385.52C343.191 404.879 342.172 404.199 342.172 404.199C342.172 404.199 310.966 411.671 294.475 412.01C277.984 412.35 277.984 412.35 277.984 412.35C277.984 412.35 258.626 401.142 255.908 369.897C253.19 338.652 272.889 325.746 267.795 297.557C262.701 269.368 254.726 242.198 260.412 206.878C266.096 171.558 279.177 159.47 284.693 156.344Z" fill="#5651E1"/>
<path d="M285.416 187.131C285.416 187.131 287.927 205.322 275.828 230.237C263.729 255.151 264.441 276.502 270.134 290.736" stroke="#733C48" stroke-miterlimit="10"/>
<path d="M259.281 342.36C259.281 342.36 253.699 405.764 316.484 409.446" stroke="#733C48" stroke-miterlimit="10"/>
<path d="M450.505 253.138C448.334 245.472 441.311 239.847 432.949 239.847C424.587 239.847 417.564 245.472 415.393 253.138H400.458V263.107H465.438V253.138H450.505Z" fill="#475263"/>
<path d="M345.868 125.745L343.09 111.246C343.09 111.246 344.27 110.904 343.965 109.077C343.661 107.25 343.09 107.326 343.09 107.326C343.09 107.326 342.595 102.569 339.855 102.189C337.115 101.808 334.451 102.341 333.386 104.396C332.321 106.451 330.304 112.121 330.304 112.121L331.788 111.931C331.788 111.931 331.636 117.259 333.234 118.781C334.832 120.303 338.086 117.792 338.086 117.792L338.752 124.299C338.752 124.299 340.587 125.03 342.285 126.049C343.983 127.067 345.868 125.745 345.868 125.745Z" fill="#F09EB0"/>
<path d="M335.545 102.359C335.545 102.359 336.114 102.956 337.28 103.07C338.446 103.184 339.242 102.985 339.242 102.985C339.242 102.985 338.048 105.686 338.73 106.881C339.412 108.075 340.436 108.161 340.436 108.161C340.436 108.161 339.867 111.914 340.351 111.715C340.834 111.516 341.943 108.815 342 108.644C342.057 108.473 343.109 107.905 343.621 108.417C344.133 108.929 344.391 110.259 343.665 110.816C342.939 111.374 342.626 111.488 342.626 111.488L343.652 114.177C343.652 114.177 345.299 111.772 345.299 109.896C345.299 108.019 344.702 106.541 344.702 106.541C344.702 106.541 344.844 103.129 344.133 102.702C343.422 102.276 342.939 102.844 342.939 102.844C342.939 102.844 340.01 99.3178 337.821 99.5738C335.631 99.8298 334.804 101.22 334.778 102.077C334.753 102.934 334.753 102.934 334.753 102.934L335.66 102.616L335.545 102.359Z" fill="#52363C"/>
<path d="M340.34 110.845C340.34 110.845 339.309 112.128 338.504 112.605C337.699 113.083 335.386 113.887 335.386 113.887C335.386 113.887 334.003 112.152 333.073 112.127C332.143 112.102 331.786 112.077 331.786 112.077C331.786 112.077 331.111 118.439 333.651 119.268C336.191 120.098 338.228 117.835 338.429 117.583C338.63 117.332 340.893 111.023 340.893 111.023" fill="#52363C"/>
<path d="M332.444 112.857C332.444 112.857 333.626 113.083 334.154 113.435C334.682 113.787 334.531 113.963 334.531 113.963L332.444 114.255V112.857Z" fill="white"/>
<path d="M334.891 107.541C334.891 107.896 334.682 108.184 334.425 108.184C334.168 108.184 333.959 107.896 333.959 107.541C333.959 107.186 334.168 106.898 334.425 106.898C334.682 106.898 334.891 107.186 334.891 107.541Z" fill="#3C282C"/>
<path d="M335.968 105.757C335.968 105.757 334.902 105.484 334.551 105.484C334.2 105.484 333.83 105.58 333.83 105.58C333.83 105.58 333.862 106.191 333.959 106.191C334.055 106.191 335.888 106.03 335.888 106.03L335.968 105.757Z" fill="#3C282C"/>
<path d="M332.99 105.224L331.788 111.931L330.304 112.121L332.99 105.224Z" fill="#F07A95"/>
<path d="M334.891 111.794C335.669 111.794 336.299 111.164 336.299 110.386C336.299 109.608 335.669 108.978 334.891 108.978C334.113 108.978 333.483 109.608 333.483 110.386C333.483 111.164 334.113 111.794 334.891 111.794Z" fill="#F07A95"/>
<path d="M345.868 124.677L344.772 120.026L338.517 122.007V125.818C338.517 125.818 335.538 132.014 335.294 135.519C335.049 139.024 334.891 147.339 334.891 147.339L309.615 155.98L310.919 161.116L332.603 159.486L335.212 179.621L344.831 177.818L344.994 170.735L347.032 177.818H353.309C353.309 177.818 348.255 133.644 348.173 132.502C348.093 131.362 345.868 124.677 345.868 124.677Z" fill="#5651E1"/>
<path d="M309.82 156.786C309.82 156.786 306.221 155.567 304.513 155.788C302.805 156.009 301.383 156.357 301.224 156.515C301.065 156.673 301.098 157.021 302.204 157.147C303.311 157.273 304.797 157.748 305.05 157.779C305.303 157.811 305.082 158.412 305.082 158.412C305.082 158.412 301.098 160.72 300.655 160.847C300.212 160.973 297.272 161.385 297.272 161.385L296.355 161.638L296.418 162.049C296.418 162.049 299.422 162.587 300.592 162.618C301.762 162.65 306.473 162.112 306.473 162.112L310.833 160.777L309.82 156.786Z" fill="#F09EB0"/>
<path d="M288.634 150.894C288.634 150.894 292.054 159.703 296.354 160.275C300.654 160.847 300.563 161.552 300.563 161.552C300.563 161.552 301.014 168.09 302.066 183.268C303.118 198.446 303.343 204.384 303.343 204.384C303.343 204.384 311.083 209.568 311.308 209.568C311.533 209.568 311.834 191.759 312.059 184.019C312.284 176.279 309.88 165.413 308.077 162.618C306.273 159.823 304.547 158.719 304.547 158.719C304.547 158.719 303.958 159.381 303.725 159.189C303.493 158.997 296.579 155.991 294.851 154.338C293.123 152.685 289.762 149.107 289.762 149.107L288.634 150.894Z" fill="#5651E1"/>
<path d="M27.6122 222.508C27.6122 222.508 25.7532 221.793 25.0862 223.461C24.4192 225.129 25.7062 227.352 27.2312 227.48C28.7562 227.608 29.3282 227.131 29.3282 227.131C29.3282 227.131 31.7112 229.514 32.1882 230.182C32.6652 230.849 31.0922 240.287 31.0922 240.287L37.5752 247.103L39.1962 241.574L37.9572 240.764L37.5762 229.324C37.5762 229.324 39.4352 228.418 39.5302 226.273C39.6252 224.128 38.2432 217.741 35.1922 216.168C32.1412 214.595 29.8532 215.787 29.8532 215.787L27.6122 222.508Z" fill="#F09EB0"/>
<path d="M33.541 218.172C33.579 218.284 36.089 221.844 36.089 221.844L34.44 221.807L33.541 218.172Z" fill="#5651E1"/>
<path d="M31.9258 229.857C31.9258 229.857 33.7678 230.042 35.6768 229.857C37.5858 229.672 37.5748 229.325 37.5748 229.325V233.012C37.5748 233.012 36.5768 232.862 34.9658 232.15C33.3538 231.437 31.9258 229.857 31.9258 229.857Z" fill="#5651E1"/>
<path d="M32.6801 221.844C32.6801 222.447 32.1911 222.937 31.5871 222.937C30.9831 222.937 30.4941 222.448 30.4941 221.844C30.4941 221.241 30.9831 220.751 31.5871 220.751C32.1911 220.751 32.6801 221.241 32.6801 221.844Z" fill="#5651E1"/>
<path d="M37.3779 220.008C37.3779 220.611 36.8889 221.101 36.2849 221.101C35.6809 221.101 35.1919 220.612 35.1919 220.008C35.1919 219.404 35.6809 218.915 36.2849 218.915C36.8889 218.915 37.3779 219.404 37.3779 220.008Z" fill="#5651E1"/>
<path d="M36.7209 223.607L33.1559 222.937C33.1559 222.937 32.6469 224.861 34.2919 225.135C35.9369 225.409 36.7209 223.607 36.7209 223.607Z" fill="white"/>
<path d="M32.2192 219.813C32.2192 220.083 32.0002 220.301 31.7312 220.301C31.4622 220.301 31.2432 220.082 31.2432 219.813C31.2432 219.543 31.4622 219.325 31.7312 219.325C32.0002 219.325 32.2192 219.543 32.2192 219.813Z" fill="#52363C"/>
<path d="M35.6811 218.402C35.6811 218.672 35.4621 218.89 35.1931 218.89C34.9231 218.89 34.7051 218.671 34.7051 218.402C34.7051 218.132 34.9241 217.914 35.1931 217.914C35.4621 217.914 35.6811 218.133 35.6811 218.402Z" fill="#52363C"/>
<path d="M31.9258 215.509C31.9258 215.509 31.2438 218.742 30.2858 220.751C29.3278 222.76 28.5498 223.374 28.5498 223.374L27.4408 222.454C27.4408 222.454 25.7108 222.163 25.2768 223.501C24.8428 224.839 25.3948 225.87 25.7288 226.412C26.0618 226.955 26.1628 226.9 26.1628 226.9L25.1168 227.894L20.2678 226.267L23.5228 220.625L19.5808 225.435L18.7128 224.513C18.7128 224.513 19.6708 222.524 20.8468 221.276C22.0218 220.028 23.4508 218.817 23.4508 218.817C23.4508 218.817 20.3408 220.951 19.8348 221.493C19.3288 222.035 18.4068 223.337 18.4068 223.337L16.6528 222.18C16.6528 222.18 17.1408 219.703 21.4268 217.207C25.7118 214.712 31.3718 213.627 31.3718 213.627L31.9258 215.509Z" fill="#52363C"/>
<path d="M31.3702 213.629C31.3702 213.629 34.9192 214.223 36.5752 215.815C38.2312 217.407 39.1652 220.008 39.1652 220.008L38.5072 221.313C38.5072 221.313 37.7262 218.829 36.0892 217.301C34.4532 215.773 31.8932 215.657 31.8932 215.657L31.2422 214.181" fill="#52363C"/>
<path d="M30.0181 240.612C30.0181 240.612 32.1121 248.88 31.5871 256.21C31.0621 263.54 27.064 280.485 27.064 280.485L14.498 275.725L23.0851 242.122L30.0181 240.612Z" fill="#5651E1"/>
<path d="M42.3268 243.42C42.3268 243.42 45.4358 253.449 46.2918 264.016C47.1488 274.583 45.3398 286.767 45.3398 286.767L38.6758 279.913L39.1638 278.115L41.8168 278.294C41.8168 278.294 42.5238 250.498 42.5988 248.69" fill="#5651E1"/>
<path d="M23.085 242.121L0 262.101C0 262.101 13.553 282.392 14.498 282.6C15.443 282.808 16.759 281.838 16.759 281.838C16.759 281.838 20.706 281.076 21.676 281.007C22.646 280.938 24.238 281.076 24.238 281.076C24.238 281.076 22.714 279.899 21.745 279.414C20.775 278.929 17.59 278.721 17.244 278.721C16.898 278.721 15.374 279.829 15.374 279.829L7.133 263.278C7.133 263.278 24.377 253.513 25.416 252.682C26.455 251.851 28.602 247.696 28.117 244.649C27.632 241.602 27.078 241.325 27.078 241.325L23.085 242.121Z" fill="#F09EB0"/>
<path d="M304.812 91.9001C304.812 91.9001 301.602 79.8081 305.437 76.4091C309.272 73.0101 309.795 82.3181 307.964 86.9891C306.134 91.6611 304.812 91.9001 304.812 91.9001Z" fill="#475C63"/>
<path d="M317.638 83.7892C317.464 83.6422 313.193 75.4282 317.987 70.9072C322.78 66.3862 321.663 75.3862 320.253 79.5462C318.843 83.7072 317.638 83.7892 317.638 83.7892Z" fill="#475C63"/>
<path d="M322.257 82.945C322.257 82.945 328.036 80.418 332.99 82.161C337.944 83.904 335.504 90.353 329.577 88.872C323.651 87.39 322.257 82.945 322.257 82.945Z" fill="#475C63"/>
<path d="M308.4 91.9002C308.4 91.9002 317.638 89.5692 320.95 92.6192C324.262 95.6692 322.083 100.013 317.203 98.9312C312.322 97.8482 308.4 91.9002 308.4 91.9002Z" fill="#475C63"/>
<path d="M143.144 190.236C143.144 190.236 137.915 175.515 141.86 168.471C145.805 161.426 149.695 158.468 149.695 158.468C149.695 158.468 149.327 169.176 151.018 179.883C152.709 190.591 147.127 199.388 147.127 199.388L143.144 190.236Z" fill="#475C63"/>
<path d="M151.114 213.959C151.114 213.959 141.602 201.157 131.094 203.411C120.586 205.665 119.881 211.019 119.881 211.019C119.881 211.019 128.053 209.008 135.52 213.958C142.987 218.908 151.923 218.569 151.923 218.569L151.114 213.959Z" fill="#475C63"/>
<path d="M113.001 156.41C113.001 156.41 102.693 153.959 93.2528 136.347C83.8128 118.736 82.6098 120.004 81.6618 104.928C80.7138 89.8528 86.3988 76.4678 86.3988 76.4678C86.3988 76.4678 83.5938 94.7838 99.1308 111.127C114.668 127.47 126.925 142.996 129.32 155.381C131.715 167.765 130.112 172.45 130.112 172.45" fill="#475C63"/>
</g>
<defs>
<clipPath id="clip0_21_207">
<rect width="546" height="413" fill="white"/>
</clipPath>
</defs>
</svg>
