<svg width="213" height="239" viewBox="0 0 213 239" fill="none" xmlns="http://www.w3.org/2000/svg">
<g clip-path="url(#clip0_21_148)">
<path d="M242.328 225.627L219.574 225.374L220.32 158.303C220.334 157.071 220.815 155.963 221.572 155.109L222.254 93.834L219.692 92.5754L196.26 92.3149C196.26 92.3149 171.209 54.3361 134.691 70.2331C98.1716 86.1301 94.1867 108.503 81.6214 108.363C69.0562 108.223 52.4162 108.038 52.4162 108.038C52.4162 108.038 44.6066 107.872 43.7288 95.1655C42.851 82.4589 40.6679 66.8107 40.6679 66.8107L31.8398 66.5815L30.681 170.813L38.2256 170.897C38.2256 170.897 44.4975 151.963 57.9981 148.201C71.4978 144.439 173.451 149.484 173.451 149.484C173.451 149.484 187.143 149.637 186.997 162.77C186.851 175.904 186.674 191.832 186.674 191.832C186.674 191.832 189.512 213.104 165.48 212.837C141.449 212.569 65.9994 211.731 65.9994 211.731C65.9994 211.731 49.2034 214.065 44.7628 226.15L242.298 228.347L242.328 225.627Z" fill="#353943"/>
<path d="M44.3804 226.246C43.7265 228.026 43.3364 230.014 43.3117 232.24L241.849 234.447L241.916 228.443L44.3804 226.246Z" fill="#4A6CF7" fill-opacity="0.88"/>
<path d="M174.481 103.879C172.395 96.1891 165.435 90.4864 157.074 90.3934C148.712 90.3005 141.627 95.847 139.371 103.488L124.437 103.322L124.326 113.291L189.302 114.013L189.413 104.045L174.481 103.879Z" fill="#4A6CF7" fill-opacity="0.88"/>
</g>
<defs>
<clipPath id="clip0_21_148">
<rect width="213" height="239" fill="white"/>
</clipPath>
</defs>
</svg>
