<svg width="135" height="80" viewBox="0 0 135 80" fill="none" xmlns="http://www.w3.org/2000/svg">
<g clip-path="url(#clip0_21_187)">
<path d="M22.3169 53.146L20.3359 48.8755L-26.4732 70.5893L-24.4922 74.8597L22.3169 53.146Z" fill="#353943"/>
<path d="M129.135 4.71823L127.154 0.447754L80.3447 22.1615L82.3257 26.432L129.135 4.71823Z" fill="#353943"/>
<path d="M84.9177 39.9762L71.6763 11.4312L18.8407 35.9405L32.0821 64.4855L84.9177 39.9762Z" fill="#4A6CF7"/>
<path d="M84.9177 39.9762L71.6763 11.4312L18.8407 35.9405L32.0821 64.4855L84.9177 39.9762Z" fill="#4A6CF7"/>
<path d="M55.3008 53.717L29.4766 31.0065L30.7533 30.4143L56.5758 53.1255L55.3008 53.717Z" fill="white"/>
<path d="M59.6511 51.6988L33.8286 28.9875L35.1036 28.3961L60.9279 51.1065L59.6511 51.6988Z" fill="white"/>
<path d="M64.0027 49.6802L38.1802 26.9689L39.4552 26.3775L65.2794 49.0879L64.0027 49.6802Z" fill="white"/>
<path d="M68.3555 47.6608L42.533 24.9496L43.808 24.3581L69.6305 47.0694L68.3555 47.6608Z" fill="white"/>
<path d="M72.7076 45.6423L46.8833 22.9318L48.1601 22.3396L73.9826 45.0508L72.7076 45.6423Z" fill="white"/>
<path d="M77.0574 43.6241L51.2349 20.9128L52.5099 20.3213L78.3341 43.0318L77.0574 43.6241Z" fill="white"/>
<path d="M81.4104 41.605L55.5879 18.8938L56.8629 18.3023L82.6872 41.0127L81.4104 41.605Z" fill="white"/>
<path d="M71.6758 11.4316L73.8723 4.48124L78.0791 2.52979L96.1157 41.412L92.4011 43.1351L84.9181 39.9786L71.6758 11.4316Z" fill="#353943"/>
<path d="M31.9155 64.9127L29.7172 71.8639L25.5104 73.8153L7.47374 34.9331L11.1884 33.21L18.674 36.3677L31.9155 64.9127Z" fill="#353943"/>
</g>
<defs>
<clipPath id="clip0_21_187">
<rect width="135" height="80" fill="white"/>
</clipPath>
</defs>
</svg>
