<svg width="154" height="41" viewBox="0 0 154 41" fill="none" xmlns="http://www.w3.org/2000/svg">
<g clip-path="url(#clip0_22_365)">
<path d="M25.9605 39.2309C25.9619 38.9706 26.0963 13.1916 26.1192 11.0913L28.3533 11.1192C28.3306 13.2113 28.1961 38.9821 28.1947 39.2422L25.9605 39.2309Z" fill="white"/>
<path d="M34.9581 1.66148L33.6398 1.95456L33.368 3.45543C34.2018 4.41769 34.193 5.97563 33.3485 6.92842C32.5039 7.88121 31.1386 7.87351 30.3048 6.91126L14.689 20.9464L2.21254 38.605C2.75782 39.2343 3.6315 39.2666 4.21264 38.7006L34.6751 9.03823C34.7583 8.95737 34.8388 8.87351 34.9179 8.78438C36.6523 6.82755 36.6708 3.63834 34.9581 1.66148Z" fill="#5651E1"/>
<path d="M31.0347 6.07213C30.385 5.32236 29.6194 4.76062 28.7589 4.40256L29.5272 2.00719C30.6996 2.49499 31.7418 3.25913 32.6248 4.27834L32.353 5.77922L31.0347 6.07213Z" fill="black"/>
<path d="M30.3245 3.43743C31.169 2.48464 32.5343 2.49242 33.368 3.45459L34.9581 1.66072C33.2459 -0.315455 30.4504 -0.331217 28.716 1.62553C28.6369 1.71474 28.5631 1.80628 28.4913 1.9003L2.15206 36.3216C1.6495 36.9783 1.66779 37.9755 2.21255 38.6043L30.3048 6.9105C29.4712 5.94825 29.4799 4.39031 30.3245 3.43743Z" fill="#5651E1"/>
<path d="M34.9549 29.2356L32.7206 29.223L32.8226 11.1355C32.8334 9.2126 32.1985 7.414 31.0348 6.07085L32.6248 4.27697C34.2078 6.10395 35.0716 8.54413 35.0569 11.1481L34.9549 29.2356Z" fill="white"/>
<path d="M41.9028 21.2624L41.8862 23.8119L26.0354 23.7052C24.3503 23.6938 22.7725 24.4193 21.5925 25.7479L20.0244 23.9345C21.6293 22.1272 23.7699 21.1403 26.0519 21.1557L41.9028 21.2624Z" fill="#5651E1"/>
<path d="M53.5827 26H50.4521L55.2223 12.1818H58.9872L63.7507 26H60.62L57.1587 15.3395H57.0508L53.5827 26ZM53.3871 20.5685H60.782V22.8491H53.3871V20.5685ZM65.3599 26V15.6364H68.1465V17.4446H68.2544C68.4434 16.8014 68.7605 16.3156 69.2058 15.9872C69.6511 15.6544 70.1639 15.4879 70.7441 15.4879C70.8881 15.4879 71.0433 15.4969 71.2097 15.5149C71.3761 15.5329 71.5223 15.5576 71.6483 15.5891V18.1396C71.5133 18.0991 71.3266 18.0631 71.0882 18.0316C70.8498 18.0001 70.6317 17.9844 70.4338 17.9844C70.0109 17.9844 69.6331 18.0766 69.3002 18.261C68.9719 18.4409 68.711 18.6928 68.5176 19.0167C68.3287 19.3406 68.2342 19.7139 68.2342 20.1367V26H65.3599ZM79.1663 15.6364V17.7955H72.9252V15.6364H79.1663ZM74.3421 13.1534H77.2164V22.8153C77.2164 23.0807 77.2568 23.2876 77.3378 23.4361C77.4188 23.58 77.5312 23.6812 77.6752 23.7397C77.8236 23.7982 77.9945 23.8274 78.1879 23.8274C78.3229 23.8274 78.4578 23.8162 78.5928 23.7937C78.7277 23.7667 78.8312 23.7464 78.9031 23.733L79.3552 25.8718C79.2113 25.9168 79.0088 25.9685 78.748 26.027C78.4871 26.09 78.17 26.1282 77.7966 26.1417C77.1039 26.1687 76.4967 26.0765 75.9749 25.8651C75.4576 25.6536 75.055 25.3253 74.7671 24.88C74.4793 24.4347 74.3376 23.8724 74.3421 23.1932V13.1534ZM81.0386 26V15.6364H83.9129V26H81.0386ZM82.4825 14.3004C82.0552 14.3004 81.6886 14.1587 81.3827 13.8754C81.0814 13.5875 80.9307 13.2434 80.9307 12.843C80.9307 12.4472 81.0814 12.1076 81.3827 11.8242C81.6886 11.5363 82.0552 11.3924 82.4825 11.3924C82.9098 11.3924 83.2742 11.5363 83.5756 11.8242C83.8814 12.1076 84.0344 12.4472 84.0344 12.843C84.0344 13.2434 83.8814 13.5875 83.5756 13.8754C83.2742 14.1587 82.9098 14.3004 82.4825 14.3004ZM90.1405 14.5906V12.1818H101.489V14.5906H97.2588V26H94.371V14.5906H90.1405ZM104.849 26.1957C104.188 26.1957 103.599 26.081 103.082 25.8516C102.564 25.6177 102.155 25.2736 101.854 24.8192C101.557 24.3604 101.408 23.7892 101.408 23.1055C101.408 22.5297 101.514 22.0462 101.725 21.6548C101.937 21.2635 102.225 20.9486 102.589 20.7102C102.953 20.4718 103.367 20.2919 103.831 20.1705C104.298 20.049 104.789 19.9635 105.301 19.9141C105.904 19.8511 106.39 19.7926 106.759 19.7386C107.128 19.6802 107.395 19.5947 107.562 19.4822C107.728 19.3698 107.811 19.2034 107.811 18.983V18.9425C107.811 18.5152 107.676 18.1845 107.407 17.9506C107.141 17.7167 106.763 17.5998 106.273 17.5998C105.756 17.5998 105.344 17.7145 105.038 17.9439C104.732 18.1688 104.53 18.4522 104.431 18.794L101.773 18.5781C101.908 17.9484 102.173 17.4041 102.569 16.9453C102.965 16.482 103.475 16.1267 104.1 15.8793C104.73 15.6274 105.459 15.5014 106.286 15.5014C106.862 15.5014 107.413 15.5689 107.94 15.7038C108.47 15.8388 108.94 16.0479 109.35 16.3313C109.764 16.6147 110.09 16.979 110.328 17.4244C110.566 17.8652 110.686 18.3937 110.686 19.0099V26H107.96V24.5629H107.879C107.712 24.8867 107.49 25.1723 107.211 25.4197C106.932 25.6626 106.597 25.8538 106.206 25.9933C105.814 26.1282 105.362 26.1957 104.849 26.1957ZM105.672 24.212C106.095 24.212 106.469 24.1288 106.793 23.9624C107.116 23.7914 107.371 23.562 107.555 23.2741C107.739 22.9863 107.832 22.6602 107.832 22.2958V21.196C107.742 21.2545 107.618 21.3085 107.46 21.358C107.308 21.4029 107.134 21.4457 106.941 21.4862C106.748 21.5221 106.554 21.5559 106.361 21.5874C106.167 21.6143 105.992 21.6391 105.834 21.6616C105.497 21.7111 105.202 21.7898 104.951 21.8977C104.699 22.0057 104.503 22.1519 104.364 22.3363C104.224 22.5162 104.154 22.7411 104.154 23.011C104.154 23.4023 104.296 23.7015 104.579 23.9084C104.867 24.1108 105.232 24.212 105.672 24.212ZM112.916 26V15.6364H115.79V26H112.916ZM114.359 14.3004C113.932 14.3004 113.566 14.1587 113.26 13.8754C112.958 13.5875 112.808 13.2434 112.808 12.843C112.808 12.4472 112.958 12.1076 113.26 11.8242C113.566 11.5363 113.932 11.3924 114.359 11.3924C114.787 11.3924 115.151 11.5363 115.453 11.8242C115.758 12.1076 115.911 12.4472 115.911 12.843C115.911 13.2434 115.758 13.5875 115.453 13.8754C115.151 14.1587 114.787 14.3004 114.359 14.3004ZM120.967 12.1818V26H118.092V12.1818H120.967ZM127.952 26.2024C126.904 26.2024 125.997 25.9798 125.233 25.5344C124.472 25.0846 123.885 24.4594 123.472 23.6587C123.058 22.8536 122.851 21.9202 122.851 20.8587C122.851 19.7881 123.058 18.8525 123.472 18.0518C123.885 17.2467 124.472 16.6214 125.233 16.1761C125.997 15.7263 126.904 15.5014 127.952 15.5014C129 15.5014 129.904 15.7263 130.664 16.1761C131.429 16.6214 132.018 17.2467 132.432 18.0518C132.846 18.8525 133.052 19.7881 133.052 20.8587C133.052 21.9202 132.846 22.8536 132.432 23.6587C132.018 24.4594 131.429 25.0846 130.664 25.5344C129.904 25.9798 129 26.2024 127.952 26.2024ZM127.965 23.9759C128.442 23.9759 128.84 23.8409 129.159 23.571C129.479 23.2966 129.719 22.9233 129.881 22.451C130.048 21.9787 130.131 21.4412 130.131 20.8384C130.131 20.2357 130.048 19.6982 129.881 19.2259C129.719 18.7536 129.479 18.3802 129.159 18.1058C128.84 17.8314 128.442 17.6942 127.965 17.6942C127.484 17.6942 127.079 17.8314 126.751 18.1058C126.427 18.3802 126.182 18.7536 126.015 19.2259C125.853 19.6982 125.772 20.2357 125.772 20.8384C125.772 21.4412 125.853 21.9787 126.015 22.451C126.182 22.9233 126.427 23.2966 126.751 23.571C127.079 23.8409 127.484 23.9759 127.965 23.9759ZM134.921 26V15.6364H137.708V17.4446H137.816C138.005 16.8014 138.322 16.3156 138.767 15.9872C139.213 15.6544 139.725 15.4879 140.306 15.4879C140.45 15.4879 140.605 15.4969 140.771 15.5149C140.938 15.5329 141.084 15.5576 141.21 15.5891V18.1396C141.075 18.0991 140.888 18.0631 140.65 18.0316C140.411 18.0001 140.193 17.9844 139.995 17.9844C139.572 17.9844 139.195 18.0766 138.862 18.261C138.533 18.4409 138.273 18.6928 138.079 19.0167C137.89 19.3406 137.796 19.7139 137.796 20.1367V26H134.921ZM151.319 18.5916L148.687 18.7536C148.642 18.5286 148.546 18.3262 148.397 18.1463C148.249 17.9619 148.053 17.8157 147.81 17.7077C147.572 17.5953 147.286 17.5391 146.953 17.5391C146.508 17.5391 146.132 17.6335 145.827 17.8224C145.521 18.0069 145.368 18.2543 145.368 18.5646C145.368 18.812 145.467 19.0212 145.665 19.1921C145.863 19.363 146.202 19.5002 146.683 19.6037L148.559 19.9815C149.567 20.1884 150.318 20.5213 150.813 20.9801C151.307 21.4389 151.555 22.0417 151.555 22.7884C151.555 23.4676 151.355 24.0636 150.954 24.5763C150.559 25.0891 150.014 25.4895 149.322 25.7773C148.633 26.0607 147.839 26.2024 146.94 26.2024C145.568 26.2024 144.475 25.9168 143.661 25.3455C142.851 24.7698 142.376 23.9871 142.237 22.9975L145.064 22.8491C145.15 23.2674 145.356 23.5868 145.685 23.8072C146.013 24.0231 146.434 24.131 146.947 24.131C147.45 24.131 147.855 24.0343 148.161 23.8409C148.471 23.643 148.629 23.3888 148.633 23.0785C148.629 22.8176 148.519 22.6039 148.303 22.4375C148.087 22.2666 147.754 22.1361 147.304 22.0462L145.509 21.6886C144.497 21.4862 143.744 21.1353 143.249 20.636C142.759 20.1367 142.514 19.5002 142.514 18.7266C142.514 18.0608 142.694 17.4873 143.053 17.006C143.418 16.5247 143.928 16.1536 144.585 15.8928C145.246 15.6319 146.02 15.5014 146.906 15.5014C148.215 15.5014 149.245 15.7781 149.996 16.3313C150.752 16.8846 151.193 17.638 151.319 18.5916Z" fill="white"/>
</g>
<defs>
<clipPath id="clip0_22_365">
<rect width="154" height="41" fill="white"/>
</clipPath>
</defs>
</svg>
